<svg width="170" height="61" viewBox="0 0 170 61" fill="none" xmlns="http://www.w3.org/2000/svg">
<rect width="170" height="61" rx="4" fill="white"/>
<path d="M121.957 22.3164L111.879 22L111.809 19.0234L115.863 18.8594L114.855 16.9844H107.109L106.242 18.8594L110.074 18.8828L109.91 22.5742L99.8555 21.7305L99.9258 18.7891L102.973 18.8125L108.621 9.20312L103.219 9.42578V5.62891H113.203L118.312 18.7656L121.957 18.6133V22.3164ZM107.848 15.3789H113.988L110.684 9.22656L107.848 15.3789ZM131.742 19.3398L131.355 22.3398L122.613 22.0938L122.238 19.9609L125.789 19.7383L125.766 13.0469L122.109 12.9297V11.0547L129.48 10.5742L128.59 19.5508L131.742 19.3398ZM129.48 7.82031C129.48 8.00781 129.422 8.1875 129.305 8.35938C129.195 8.52344 129.043 8.66797 128.848 8.79297C128.652 8.91797 128.422 9.01953 128.156 9.09766C127.898 9.16797 127.621 9.20312 127.324 9.20312C127.02 9.20312 126.734 9.16797 126.469 9.09766C126.211 9.01953 125.984 8.91797 125.789 8.79297C125.594 8.66797 125.438 8.52344 125.32 8.35938C125.211 8.1875 125.156 8.00781 125.156 7.82031C125.156 7.625 125.211 7.44141 125.32 7.26953C125.438 7.08984 125.594 6.9375 125.789 6.8125C125.984 6.6875 126.211 6.58984 126.469 6.51953C126.734 6.44141 127.02 6.40234 127.324 6.40234C127.621 6.40234 127.898 6.44141 128.156 6.51953C128.422 6.58984 128.652 6.6875 128.848 6.8125C129.043 6.9375 129.195 7.08984 129.305 7.26953C129.422 7.44141 129.48 7.625 129.48 7.82031ZM142.195 19.3164V21.2852L133.172 22.4336L132.832 19.4336L135.832 19.4102L135.973 12.9062L132.328 12.6367V10.6445L139.91 9.97656L139.523 12.5898C139.695 12.4102 139.922 12.2031 140.203 11.9688C140.484 11.7266 140.793 11.4844 141.129 11.2422C141.473 10.9922 141.836 10.7422 142.219 10.4922C142.609 10.2422 143 10.0156 143.391 9.8125C143.781 9.60156 144.164 9.42188 144.539 9.27344C144.922 9.11719 145.273 9.00781 145.594 8.94531L145.91 12.8359C144.785 12.8359 143.816 12.9336 143.004 13.1289C142.199 13.3242 141.527 13.5391 140.988 13.7734C140.363 14.0469 139.836 14.3555 139.406 14.6992L138.586 19.3633L142.195 19.3164ZM113.426 46.6836C113.426 47.5273 113.316 48.2812 113.098 48.9453C112.879 49.6094 112.582 50.1992 112.207 50.7148C111.832 51.2227 111.398 51.6602 110.906 52.0273C110.414 52.3867 109.895 52.6836 109.348 52.918C108.809 53.1445 108.258 53.3086 107.695 53.4102C107.133 53.5195 106.598 53.5742 106.09 53.5742C105.316 53.5742 104.562 53.4414 103.828 53.1758C103.102 52.918 102.449 52.5195 101.871 51.9805C101.301 51.4414 100.836 50.7617 100.477 49.9414C100.125 49.1211 99.9375 48.1484 99.9141 47.0234C99.9141 46.5703 99.9219 46.0859 99.9375 45.5703C99.9609 45.0547 99.9883 44.5312 100.02 44C100.051 43.4688 100.086 42.9414 100.125 42.418C100.164 41.8867 100.207 41.3789 100.254 40.8945C100.348 39.7695 100.461 38.6367 100.594 37.4961L98.0977 37.6133L98.2617 35.2344L104.977 35.8672C104.875 36.3672 104.766 36.9141 104.648 37.5078C104.547 38.0156 104.434 38.6055 104.309 39.2773C104.191 39.9414 104.078 40.6523 103.969 41.4102C104.508 41.0977 105.062 40.8555 105.633 40.6836C106.211 40.5117 106.801 40.4258 107.402 40.4258C108.246 40.4258 109.035 40.5508 109.77 40.8008C110.504 41.043 111.141 41.4219 111.68 41.9375C112.227 42.4453 112.652 43.0938 112.957 43.8828C113.27 44.6641 113.426 45.5977 113.426 46.6836ZM103.348 47.9844C103.348 48.5312 103.426 49.0469 103.582 49.5312C103.738 50.0078 103.945 50.4258 104.203 50.7852C104.469 51.1445 104.773 51.4297 105.117 51.6406C105.469 51.8438 105.832 51.9453 106.207 51.9453C107.168 51.9453 107.898 51.5195 108.398 50.668C108.898 49.8164 109.16 48.4883 109.184 46.6836C109.191 45.7773 109.109 45.043 108.938 44.4805C108.766 43.9102 108.543 43.4648 108.27 43.1445C108.004 42.8164 107.711 42.5938 107.391 42.4766C107.07 42.3594 106.773 42.293 106.5 42.2773C106.297 42.2695 106.074 42.2969 105.832 42.3594C105.59 42.4219 105.34 42.5195 105.082 42.6523C104.824 42.7773 104.57 42.9414 104.32 43.1445C104.078 43.3398 103.852 43.5703 103.641 43.8359C103.555 44.5625 103.484 45.2773 103.43 45.9805C103.375 46.6836 103.348 47.3516 103.348 47.9844ZM123.023 50.7383L122.812 53.2695L114.762 53.2109V51.0781L117.188 50.9844L117.023 43.6133L114.527 43.6836V41.5508L121.102 40.707L120.938 42.9453C121.508 42.5 122.07 42.1562 122.625 41.9141C123.188 41.6641 123.691 41.4727 124.137 41.3398C124.66 41.1914 125.16 41.0938 125.637 41.0469C126.41 41.0469 127.066 41.1523 127.605 41.3633C128.152 41.5664 128.594 41.8594 128.93 42.2422C129.273 42.6172 129.523 43.0703 129.68 43.6016C129.836 44.1328 129.914 44.7227 129.914 45.3711C129.914 45.6445 129.91 45.8867 129.902 46.0977C129.895 46.3086 129.879 46.5156 129.855 46.7188C129.84 46.9141 129.816 47.1211 129.785 47.3398C129.762 47.5508 129.73 47.8047 129.691 48.1016C129.652 48.3984 129.605 48.75 129.551 49.1562C129.504 49.5547 129.449 50.0352 129.387 50.5977L131.883 50.457L131.543 53.2695L125.273 53.0234C125.367 52.1094 125.449 51.3242 125.52 50.668C125.59 50.0117 125.652 49.4531 125.707 48.9922C125.762 48.5234 125.805 48.1328 125.836 47.8203C125.867 47.5 125.895 47.2227 125.918 46.9883C125.941 46.7461 125.957 46.5273 125.965 46.332C125.973 46.1367 125.977 45.9258 125.977 45.6992C125.977 45.3477 125.949 45.0195 125.895 44.7148C125.84 44.4023 125.742 44.1289 125.602 43.8945C125.469 43.6602 125.289 43.4766 125.062 43.3438C124.844 43.2031 124.57 43.125 124.242 43.1094C123.945 43.1484 123.617 43.2422 123.258 43.3906C122.945 43.5234 122.578 43.7188 122.156 43.9766C121.742 44.2266 121.285 44.5859 120.785 45.0547L120.387 50.8672L123.023 50.7383ZM146.637 46.6836C146.637 47.5273 146.527 48.2812 146.309 48.9453C146.09 49.6094 145.793 50.1992 145.418 50.7148C145.043 51.2227 144.609 51.6602 144.117 52.0273C143.625 52.3867 143.105 52.6836 142.559 52.918C142.02 53.1445 141.469 53.3086 140.906 53.4102C140.344 53.5195 139.809 53.5742 139.301 53.5742C138.527 53.5742 137.773 53.4414 137.039 53.1758C136.312 52.918 135.66 52.5195 135.082 51.9805C134.512 51.4414 134.047 50.7617 133.688 49.9414C133.336 49.1211 133.148 48.1484 133.125 47.0234C133.125 46.5703 133.133 46.0859 133.148 45.5703C133.172 45.0547 133.199 44.5312 133.23 44C133.262 43.4688 133.297 42.9414 133.336 42.418C133.375 41.8867 133.418 41.3789 133.465 40.8945C133.559 39.7695 133.672 38.6367 133.805 37.4961L131.309 37.6133L131.473 35.2344L138.188 35.8672C138.086 36.3672 137.977 36.9141 137.859 37.5078C137.758 38.0156 137.645 38.6055 137.52 39.2773C137.402 39.9414 137.289 40.6523 137.18 41.4102C137.719 41.0977 138.273 40.8555 138.844 40.6836C139.422 40.5117 140.012 40.4258 140.613 40.4258C141.457 40.4258 142.246 40.5508 142.98 40.8008C143.715 41.043 144.352 41.4219 144.891 41.9375C145.438 42.4453 145.863 43.0938 146.168 43.8828C146.48 44.6641 146.637 45.5977 146.637 46.6836ZM136.559 47.9844C136.559 48.5312 136.637 49.0469 136.793 49.5312C136.949 50.0078 137.156 50.4258 137.414 50.7852C137.68 51.1445 137.984 51.4297 138.328 51.6406C138.68 51.8438 139.043 51.9453 139.418 51.9453C140.379 51.9453 141.109 51.5195 141.609 50.668C142.109 49.8164 142.371 48.4883 142.395 46.6836C142.402 45.7773 142.32 45.043 142.148 44.4805C141.977 43.9102 141.754 43.4648 141.48 43.1445C141.215 42.8164 140.922 42.5938 140.602 42.4766C140.281 42.3594 139.984 42.293 139.711 42.2773C139.508 42.2695 139.285 42.2969 139.043 42.3594C138.801 42.4219 138.551 42.5195 138.293 42.6523C138.035 42.7773 137.781 42.9414 137.531 43.1445C137.289 43.3398 137.062 43.5703 136.852 43.8359C136.766 44.5625 136.695 45.2773 136.641 45.9805C136.586 46.6836 136.559 47.3516 136.559 47.9844Z" fill="#FF5A5F"/>
<rect width="74" height="61" fill="#8A0000"/>
<path d="M36.9483 44.9387C33.1743 41.0347 30.9543 37.6126 30.2143 34.6846C29.4743 32.3056 29.7703 30.4146 31.0283 29.0116C32.3603 27.3646 34.3583 26.5716 36.9483 26.5716C39.5383 26.5716 41.5363 27.3646 42.8683 29.0116C44.1263 30.4146 44.4223 32.3056 43.6823 34.6846C42.8683 37.6736 40.6483 41.0896 36.9483 44.9387ZM63.7511 47.5617C63.2331 50.4287 60.8651 52.8077 57.6091 53.9667C51.3191 56.2237 45.0957 52.6247 39.7677 47.7447C48.5811 38.6496 50.2091 31.5736 46.4277 26.9925C44.2077 24.3695 41.0257 23.0885 36.9483 23.0885C28.7343 23.0885 24.2129 28.8225 25.9889 35.4776C27.0249 39.0766 29.7629 43.1697 34.1289 47.7447C31.3909 50.2457 28.8009 52.0147 26.5069 53.1127C24.7309 53.9057 23.0289 54.3937 21.4009 54.5157C13.9269 55.4307 8.07353 49.4527 10.7375 43.2856C11.1075 42.4926 11.8475 41.0286 13.1055 38.7716L13.1795 38.6496C17.2495 31.3235 22.2149 23.0275 27.9129 13.8104L28.0609 13.5054L29.6889 10.9434C30.9469 9.05235 31.4649 8.19836 33.4629 7.16136C34.4249 6.67335 35.6089 6.42935 36.9409 6.42935C39.6049 6.42935 41.6769 7.71035 42.5649 8.74735C43.0089 9.29635 43.5269 10.0284 44.1929 10.9434L45.7469 13.4444L45.9689 13.8104C51.6669 23.0275 56.6323 31.3235 60.7023 38.6496L60.7763 38.7106L62.2563 41.5166L63.1443 43.2856C63.8251 44.6947 63.9731 46.0977 63.7511 47.5617ZM67.1551 42.0656C66.6371 40.7236 65.7491 39.1376 64.6391 37.2466V37.1856C59.3851 27.9685 54.4937 19.6725 49.8317 12.2244L49.5357 11.8584C46.2057 6.24635 43.8377 2.88525 36.9483 2.88525C30.1403 2.88525 27.2469 6.78925 24.2869 11.8584L24.0649 12.2244C19.4029 19.6725 14.5115 27.9685 9.25753 37.1856V37.3076L7.70353 40.1136C7.11153 41.2726 6.81553 41.8826 6.74153 42.0656C2.96753 50.6117 10.7375 58.1147 20.1429 58.1147C20.2169 58.1147 20.5129 58.1147 20.8829 58.0537H21.9189C26.8029 57.5657 31.8423 55.0037 36.9483 50.4226C42.0543 54.9976 47.0937 57.5657 51.9777 58.0537H53.0137C53.3837 58.1147 53.6797 58.1147 53.7537 58.1147C63.1591 58.1208 70.9291 50.6117 67.1551 42.0656Z" fill="#FF5A5F"/>
</svg>
